<?xml version="1.0" standalone="no"?><!DOCTYPE svg PUBLIC "-//W3C//DTD SVG 1.1//EN" "http://www.w3.org/Graphics/SVG/1.1/DTD/svg11.dtd"><svg t="1772563842335" class="icon" viewBox="0 0 1024 1024" version="1.1" xmlns="http://www.w3.org/2000/svg" p-id="1695" xmlns:xlink="http://www.w3.org/1999/xlink" width="200" height="200"><path d="M0 0m221.866667 0l580.266666 0q221.866667 0 221.866667 221.866667l0 580.266666q0 221.866667-221.866667 221.866667l-580.266666 0q-221.866667 0-221.866667-221.866667l0-580.266666q0-221.866667 221.866667-221.866667Z" fill="#9046FF" p-id="1696"></path><path d="M340.099413 698.806613c-70.17728 155.405653 79.294293 194.41152 189.540694 103.45984 32.439467 101.976747 153.924267 25.870507 197.599573-53.21472 96.045227-174.27456 57.245013-351.947093 47.279787-388.62592-68.269227-249.967787-409.614507-250.391893-468.343467 1.27232-13.78048 44.099413-13.99296 94.135467-21.625173 146.07872-3.816107 26.290347-6.784853 43.039573-16.749227 70.59968-5.93664 15.90528-13.781333 29.89568-26.501973 53.640534-19.505493 36.89472-11.237547 107.91936 89.682773 71.02976l9.54112-4.240214h-0.424107z" fill="#FFFFFF" p-id="1697"></path><path d="M542.82496 468.781227c-27.985067 0-32.22528-33.498453-32.22528-53.428054 0-18.021547 3.180373-32.226133 9.330347-41.343146 5.300053-8.05632 13.144747-12.084907 22.894933-12.084907 9.755307 0 18.23488 4.028587 24.169813 12.296533 6.784853 9.329493 10.390187 23.53408 10.390187 41.13152 0 33.498453-12.929707 53.428053-34.34496 53.428054h-0.21504zM658.1248 468.781227c-27.985067 0-32.224427-33.498453-32.224427-53.428054 0-18.021547 3.17952-32.226133 9.329494-41.343146 5.300053-8.05632 13.144747-12.084907 22.894933-12.084907 9.755307 0 18.23488 4.028587 24.169813 12.296533 6.785707 9.329493 10.390187 23.53408 10.390187 41.13152 0 33.498453-12.929707 53.428053-34.34496 53.428054h-0.21504z" fill="#000000" p-id="1698"></path></svg>