<svg xmlns="http://www.w3.org/2000/svg" width="1024" height="1024" viewBox="0 0 1024 1024" preserveAspectRatio="xMidYMid meet">
  <defs>
    <clipPath id="squircleClip">
      <rect x="100" y="100" width="824" height="824" rx="154" ry="154"/>
    </clipPath>
    <linearGradient id="bgGradient" x1="0%" y1="0%" x2="100%" y2="100%">
      <stop offset="0%" stop-color="#F4F8FF"/>
      <stop offset="100%" stop-color="#DDEBFF"/>
    </linearGradient>
  </defs>

  <g clip-path="url(#squircleClip)">
    <rect x="100" y="100" width="824" height="824" rx="154" ry="154" fill="url(#bgGradient)"/>
    <g transform="translate(-185.6 -185.6) scale(1.7453)">
      <g transform="translate(144.031307,657.479813) scale(0.064292,-0.064292)" stroke="none">

        <path fill="#0f294d" d="M1260 6918 c0 -37 6 -47 48 -87 50 -48 134 -96 155 -88 7 2 -30 46 -85 102 -54 54 -98 102 -98 106 0 5 -4 9 -10 9 -5 0 -10 -19 -10 -42z"/>
        <path fill="#0f294d" d="M1436 6936 c7 -29 88 -193 100 -205 4 -3 4 14 0 38 -8 50 -57 150 -88 178 -19 17 -19 17 -12 -11z"/>
        <path fill="#0f294d" d="M1080 6925 c0 -3 7 -22 15 -41 14 -35 14 -37 -10 -56 -14 -11 -25 -23 -25 -28 0 -5 22 -13 50 -19 42 -9 80 -23 189 -68 28 -12 -18 52 -81 113 -88 85 -138 121 -138 99z"/>
        <path fill="#0f294d" d="M6637 6846 c-60 -76 -81 -116 -59 -116 17 1 104 74 122 103 20 32 28 97 12 97 -4 0 -38 -38 -75 -84z"/>
        <path fill="#0f294d" d="M6825 6851 c-52 -33 -165 -139 -165 -155 0 -3 24 3 53 15 112 44 133 51 177 58 l45 7 -34 32 c-27 26 -31 35 -21 47 28 34 1 32 -55 -4z"/>
        <path fill="#0f294d" d="M1075 6703 c-16 -16 -16 -17 1 -30 10 -7 30 -13 44 -13 23 0 48 -6 160 -36 l25 -7 -20 23 c-60 70 -171 103 -210 63z"/>
        <path fill="#0f294d" d="M6744 6665 c-73 -37 -121 -72 -111 -81 3 -3 39 4 79 15 41 12 102 21 136 21 34 0 62 2 62 4 0 2 -6 16 -14 31 -29 56 -58 58 -152 10z"/>

        <path fill="#439cd6" d="M6015 6184 c-180 -21 -557 -91 -755 -140 -218 -53 -277 -71 -283 -87 -4 -12 38 -231 48 -248 4 -5 15 -9 25 -9 17 0 345 61 408 75 13 3 22 2 20 -3 -1 -5 -84 -94 -184 -198 -99 -104 -203 -214 -230 -244 -238 -262 -467 -505 -624 -660 -204 -203 -416 -388 -429 -374 -5 5 -39 45 -76 89 -232 277 -997 1035 -1088 1078 -71 34 -187 12 -212 -39 -7 -15 -8 -53 -2 -115 4 -52 5 -268 1 -481 -7 -451 -26 -388 148 -486 117 -65 151 -74 163 -44 3 9 9 135 12 279 l6 263 46 -37 c80 -64 356 -320 499 -462 150 -149 326 -346 434 -486 39 -49 76 -91 83 -93 7 -2 43 32 81 74 72 81 161 164 434 404 351 308 833 811 1178 1225 l33 40 -5 -70 c-3 -38 -11 -131 -17 -206 -7 -75 -10 -143 -6 -152 6 -17 126 -90 200 -121 41 -17 49 -18 61 -6 12 13 48 190 176 858 46 240 57 340 41 370 -14 26 -25 26 -186 6z m-687 -256 c-15 -10 -152 -76 -185 -89 -35 -13 -27 4 21 49 29 27 57 43 83 47 21 4 43 8 48 9 6 2 18 1 28 -2 15 -4 16 -7 5 -14z m595 -718 c2 3 10 14 16 25 11 17 12 17 7 2 -3 -11 -9 -30 -12 -43 -5 -18 -12 -24 -28 -22 -17 2 -22 11 -24 43 l-2 40 19 -25 c11 -14 22 -23 24 -20z m-1837 -1280 c24 0 15 -17 -16 -30 -16 -7 -30 -19 -30 -26 0 -8 -4 -14 -9 -14 -4 0 -3 18 3 40 7 28 15 39 24 35 7 -3 20 -5 28 -5z"/>

        <path
          id="s-letter-shape"
          fill="#0f294d"
          stroke="#0f294d"
          stroke-width="130"
          stroke-linejoin="round"
          paint-order="stroke fill"
          d="M2739 6055 c-208 -34 -335 -79 -497 -177 -186 -112 -349 -312 -415 -509 -72 -212 -57 -481 37 -685 146 -316 447 -539 1141 -849 215 -95 440 -207 515 -257 96 -63 219 -190 274 -283 72 -123 91 -195 91 -350 0 -117 -3 -138 -28 -212 -64 -187 -206 -333 -435 -448 -163 -81 -289 -109 -502 -109 -93 0 -179 5 -214 13 -300 67 -666 376 -770 648 -33 88 -56 178 -56 221 0 69 -55 122 -99 95 -35 -22 -43 -59 -31 -141 54 -367 265 -649 649 -867 193 -109 368 -152 581 -142 244 12 410 74 644 240 175 124 270 235 337 395 89 212 79 468 -26 671 -131 254 -347 421 -796 615 -715 309 -1023 524 -1151 806 -53 116 -72 205 -72 345 0 141 12 204 65 322 144 324 526 539 954 536 201 -1 378 -54 539 -161 197 -130 311 -305 351 -541 16 -92 35 -121 80 -121 27 0 54 24 56 48 7 81 -32 255 -77 344 -69 138 -190 278 -317 369 -87 61 -248 133 -367 163 -132 34 -331 43 -461 21z"/>

        <defs>
          <clipPath id="s-letter-clip">
            <use href="#s-letter-shape"/>
          </clipPath>
        </defs>
        <g clip-path="url(#s-letter-clip)">
          <rect x="3617" y="5538" width="426" height="126" rx="63" fill="#ffffff" transform="rotate(124 3830 5601)"/>
          <circle cx="3826" cy="5601" r="35" fill="#ffffff"/>

          <rect x="1801" y="2384" width="426" height="126" rx="63" fill="#ffffff" transform="rotate(-48 2014 2447)"/>
          <circle cx="2013" cy="2447" r="35" fill="#ffffff"/>
        </g>

        <path fill="#0f294d" d="M5459 4903 c-42 -34 -119 -117 -184 -198 -90 -111 -85 -75 -95 -677 -6 -293 -14 -738 -20 -988 -9 -415 -2 -860 15 -966 12 -69 85 -95 240 -84 99 7 105 12 117 106 11 84 1 2642 -11 2763 -3 36 -11 66 -17 68 -6 2 -26 -9 -45 -24z m-28 -159 c-19 -24 -19 -54 0 -54 5 0 9 -4 9 -10 0 -5 -12 -10 -26 -10 -24 0 -26 -3 -20 -30 4 -23 2 -30 -9 -30 -22 0 -39 -50 -26 -72 15 -24 14 -38 -4 -38 -8 0 -15 5 -15 11 0 7 -11 8 -30 4 -29 -6 -30 -5 -30 29 0 36 30 84 125 200 39 49 64 49 26 0z m-126 -2401 c9 -21 23 -49 31 -61 15 -22 17 -23 34 -7 10 9 21 33 25 53 9 48 20 27 28 -53 4 -33 14 -82 23 -108 19 -55 14 -65 -21 -49 -46 21 -101 15 -123 -13 -11 -14 -22 -25 -25 -25 -14 0 -29 119 -22 183 6 67 19 117 30 117 2 0 12 -17 20 -37z"/>

        <path fill="#439cd6" d="M2664 3706 c-3 -8 -4 -241 -2 -519 2 -385 6 -508 16 -519 12 -15 109 -31 201 -32 l45 -1 12 75 c12 74 57 568 70 767 7 120 20 105 -165 189 -122 55 -167 65 -177 40z"/>

        <path fill="#0f294d" d="M997 1730 c-4 -14 -10 -81 -14 -150 -6 -137 5 -245 38 -370 28 -104 55 -149 93 -154 66 -10 837 -16 832 -7 -11 17 -127 50 -296 84 l-164 34 44 28 c85 52 90 55 90 63 0 4 -42 2 -92 -4 -141 -19 -169 -18 -175 6 -5 19 -11 20 -84 14 -53 -5 -79 -3 -79 4 0 6 19 45 41 87 23 42 39 79 36 82 -4 3 -26 0 -51 -6 -77 -19 -79 -18 -119 67 -21 42 -50 115 -66 162 -23 70 -29 80 -34 60z"/>
        <path fill="#0f294d" d="M6934 1640 c-7 -14 -21 -47 -32 -75 -11 -27 -34 -80 -52 -117 -35 -72 -42 -75 -92 -30 -17 14 -18 13 -18 -9 1 -13 7 -42 15 -64 8 -22 15 -46 15 -52 0 -15 -42 -17 -87 -4 -42 12 -47 5 -23 -35 l21 -32 -38 -13 c-36 -12 -210 -7 -277 7 -39 9 -28 -7 34 -47 27 -18 47 -35 45 -39 -2 -4 -39 -10 -81 -13 -91 -8 -335 -61 -372 -82 -24 -13 2 -14 248 -14 151 0 340 4 419 8 l145 8 41 45 c74 82 107 224 103 439 -2 118 -5 139 -14 119z"/>

      </g>
    </g>
  </g>
</svg>
